<svg width="36" height="36" xmlns="http://www.w3.org/2000/svg"><path stroke="null" id="svg_1" d="m18.60002,18.00002q-1.98,0 -3.24001,-1.26q-1.26,-1.26 -1.26,-3.24001q0,-1.98 1.26,-3.24001q1.26,-1.26 3.24001,-1.26q1.98,0 3.24001,1.26q1.26,1.26 1.26,3.24001q0,1.98 -1.26,3.24001q-1.26,1.26 -3.24001,1.26zm-9.60002,9.63002l0,-2.82001q0,-1.14 0.57,-1.95t1.47,-1.23q2.01,-0.9 3.85501,-1.35q1.845,-0.45 3.70501,-0.45q1.86,0 3.69001,0.465q1.83,0.465 3.84001,1.335q0.93,0.42 1.5,1.23q0.57,0.81 0.57,1.95l0,2.82001l-19.20005,0zm1.8,-1.8l15.60004,0l0,-1.02q0,-0.48 -0.285,-0.915q-0.285,-0.435 -0.705,-0.645q-1.92,-0.93 -3.51001,-1.275q-1.59,-0.345 -3.30001,-0.345t-3.33001,0.345q-1.62,0.345 -3.51001,1.275q-0.42,0.21 -0.69,0.645q-0.27,0.435 -0.27,0.915l0,1.02zm7.80002,-9.63002q1.17,0 1.935,-0.765q0.765,-0.765 0.765,-1.935q0,-1.17 -0.765,-1.935q-0.765,-0.765 -1.935,-0.765q-1.17,0 -1.935,0.765q-0.765,0.765 -0.765,1.935q0,1.17 0.765,1.935q0.765,0.765 1.935,0.765zm0,-2.70001zm0,12.33003z"/></svg>